<svg width="15" height="15" viewBox="0 0 15 15" fill="none" xmlns="http://www.w3.org/2000/svg">
<g clip-path="url(#clip0_82_1605)">
<path d="M10.2437 2.72852C10.1434 2.62825 10.0249 2.57812 9.88818 2.57812C9.75146 2.57812 9.63298 2.62825 9.53271 2.72852C9.43245 2.81966 9.38232 2.93359 9.38232 3.07031C9.38232 3.20703 9.43245 3.32552 9.53271 3.42578L13.1147 7.00781H1.30225C1.16553 7.00781 1.04932 7.05566 0.953613 7.15137C0.85791 7.24707 0.810059 7.36328 0.810059 7.5C0.810059 7.63672 0.85791 7.75293 0.953613 7.84863C1.04932 7.94434 1.16553 7.99219 1.30225 7.99219H13.1147L9.53271 11.5742C9.43245 11.6654 9.38232 11.7816 9.38232 11.9229C9.38232 12.0641 9.43245 12.1803 9.53271 12.2715C9.63298 12.3717 9.75146 12.4219 9.88818 12.4219C10.0249 12.4219 10.1434 12.3717 10.2437 12.2715L14.6597 7.85547C14.7599 7.75521 14.8101 7.63672 14.8101 7.5C14.8101 7.36328 14.7599 7.24479 14.6597 7.14453L10.2437 2.72852Z" fill="#6832C5"/>
</g>
<defs>
<clipPath id="clip0_82_1605">
<rect width="14" height="14" fill="white" transform="matrix(1 0 0 -1 0.810059 14.5)"/>
</clipPath>
</defs>
</svg>
