<svg width="109" height="50" viewBox="0 0 109 50" fill="none" xmlns="http://www.w3.org/2000/svg">
<mask id="path-1-outside-1_82_1469" maskUnits="userSpaceOnUse" x="0" y="0" width="110" height="51" fill="black">
<rect fill="white" width="110" height="51"/>
<path d="M9.075 18.2C7.39167 18.2 5.94167 17.825 4.725 17.075C3.525 16.3083 2.6 15.2833 1.95 14C1.3 12.7167 0.975 11.2917 0.975 9.725C0.975 8.15833 1.30833 6.73333 1.975 5.45C2.64167 4.16667 3.58333 3.15 4.8 2.4C6.03333 1.63333 7.475 1.25 9.125 1.25C10.9083 1.25 12.45 1.69167 13.75 2.575C15.0667 3.44167 16.0333 4.56667 16.65 5.95H14.6C14.1 5.06667 13.4 4.36667 12.5 3.85C11.6167 3.33333 10.5417 3.075 9.275 3.075C7.94167 3.075 6.79167 3.375 5.825 3.975C4.85833 4.55833 4.11667 5.35 3.6 6.35C3.1 7.35 2.85 8.475 2.85 9.725C2.85 10.9583 3.1 12.0833 3.6 13.1C4.1 14.1 4.825 14.9 5.775 15.5C6.74167 16.0833 7.89167 16.375 9.225 16.375C10.225 16.375 11.1667 16.1583 12.05 15.725C12.95 15.2917 13.675 14.6667 14.225 13.85C14.7917 13.0333 15.075 12.05 15.075 10.9H9.025V9.2H16.8V18H15.075V15.075C14.725 15.6083 14.275 16.1167 13.725 16.6C13.175 17.0667 12.5083 17.45 11.725 17.75C10.9583 18.05 10.075 18.2 9.075 18.2ZM19.6914 18V5.5H21.5664V8.575C21.6331 8.35833 21.7581 8.075 21.9414 7.725C22.1414 7.35833 22.4247 6.99167 22.7914 6.625C23.1581 6.25833 23.6164 5.95 24.1664 5.7C24.7331 5.43333 25.3997 5.3 26.1664 5.3H26.2914V7.175H26.0664C25.1331 7.175 24.3247 7.43333 23.6414 7.95C22.9747 8.45 22.4581 9.10833 22.0914 9.925C21.7414 10.725 21.5664 11.5833 21.5664 12.5V18H19.6914ZM33.4172 18.2C32.1505 18.2 31.0505 17.9167 30.1172 17.35C29.1839 16.7667 28.4672 15.9833 27.9672 15C27.4672 14.0167 27.2172 12.9333 27.2172 11.75C27.2172 10.55 27.4672 9.46667 27.9672 8.5C28.4672 7.51667 29.1839 6.74167 30.1172 6.175C31.0505 5.59167 32.1505 5.3 33.4172 5.3C34.7005 5.3 35.8005 5.59167 36.7172 6.175C37.6505 6.74167 38.3672 7.51667 38.8672 8.5C39.3672 9.46667 39.6172 10.55 39.6172 11.75C39.6172 12.9333 39.3672 14.0167 38.8672 15C38.3672 15.9833 37.6505 16.7667 36.7172 17.35C35.8005 17.9167 34.7005 18.2 33.4172 18.2ZM33.4172 16.5C34.3505 16.5 35.1339 16.2833 35.7672 15.85C36.4172 15.4167 36.9089 14.8417 37.2422 14.125C37.5755 13.3917 37.7422 12.6 37.7422 11.75C37.7422 10.8833 37.5755 10.0917 37.2422 9.375C36.9089 8.65833 36.4172 8.08333 35.7672 7.65C35.1339 7.21667 34.3505 7 33.4172 7C32.5005 7 31.7172 7.21667 31.0672 7.65C30.4172 8.08333 29.9255 8.65833 29.5922 9.375C29.2589 10.0917 29.0922 10.8833 29.0922 11.75C29.0922 12.6 29.2589 13.3917 29.5922 14.125C29.9255 14.8417 30.4172 15.4167 31.0672 15.85C31.7172 16.2833 32.5005 16.5 33.4172 16.5ZM44.2844 18L40.3594 5.5H42.3594L45.3594 15.675L48.5344 5.5H50.5844L53.7594 15.675L56.7594 5.5H58.7594L54.8344 18H52.6844L49.5594 8.025L46.4344 18H44.2844ZM61.8617 18V7.15H59.3117V5.5H61.8617V1.025H63.7367V5.5H66.6117V7.15H63.7367V18H61.8617ZM68.666 18V0.499999H70.541V7.45C70.991 6.85 71.541 6.34167 72.191 5.925C72.841 5.50833 73.6743 5.3 74.691 5.3C75.5577 5.3 76.366 5.50833 77.116 5.925C77.8827 6.325 78.4993 6.93333 78.966 7.75C79.4493 8.55 79.691 9.54167 79.691 10.725V18H77.816V10.775C77.816 9.64167 77.491 8.73333 76.841 8.05C76.191 7.35 75.3493 7 74.316 7C73.616 7 72.9827 7.15833 72.416 7.475C71.8493 7.79167 71.391 8.24167 71.041 8.825C70.7077 9.39167 70.541 10.05 70.541 10.8V18H68.666ZM8.975 45.2C7.325 45.2 5.9 44.825 4.7 44.075C3.5 43.3083 2.575 42.2833 1.925 41C1.29167 39.7167 0.975 38.2917 0.975 36.725C0.975 35.1583 1.29167 33.7333 1.925 32.45C2.575 31.1667 3.5 30.15 4.7 29.4C5.9 28.6333 7.325 28.25 8.975 28.25C10.225 28.25 11.35 28.475 12.35 28.925C13.35 29.3583 14.2 29.9583 14.9 30.725C15.6 31.4917 16.125 32.3833 16.475 33.4H14.5C14.0833 32.3833 13.425 31.575 12.525 30.975C11.625 30.375 10.4917 30.075 9.125 30.075C7.79167 30.075 6.65 30.375 5.7 30.975C4.76667 31.5583 4.05833 32.35 3.575 33.35C3.09167 34.35 2.85 35.475 2.85 36.725C2.85 37.9583 3.09167 39.0833 3.575 40.1C4.05833 41.1 4.76667 41.9 5.7 42.5C6.65 43.0833 7.79167 43.375 9.125 43.375C10.4917 43.375 11.625 43.075 12.525 42.475C13.425 41.875 14.0833 41.0667 14.5 40.05H16.475C16.125 41.05 15.6 41.9417 14.9 42.725C14.2 43.4917 13.35 44.1 12.35 44.55C11.35 44.9833 10.225 45.2 8.975 45.2ZM24.3107 45.2C23.0441 45.2 21.9441 44.9167 21.0107 44.35C20.0774 43.7667 19.3607 42.9833 18.8607 42C18.3607 41.0167 18.1107 39.9333 18.1107 38.75C18.1107 37.55 18.3607 36.4667 18.8607 35.5C19.3607 34.5167 20.0774 33.7417 21.0107 33.175C21.9441 32.5917 23.0441 32.3 24.3107 32.3C25.5941 32.3 26.6941 32.5917 27.6107 33.175C28.5441 33.7417 29.2607 34.5167 29.7607 35.5C30.2607 36.4667 30.5107 37.55 30.5107 38.75C30.5107 39.9333 30.2607 41.0167 29.7607 42C29.2607 42.9833 28.5441 43.7667 27.6107 44.35C26.6941 44.9167 25.5941 45.2 24.3107 45.2ZM24.3107 43.5C25.2441 43.5 26.0274 43.2833 26.6607 42.85C27.3107 42.4167 27.8024 41.8417 28.1357 41.125C28.4691 40.3917 28.6357 39.6 28.6357 38.75C28.6357 37.8833 28.4691 37.0917 28.1357 36.375C27.8024 35.6583 27.3107 35.0833 26.6607 34.65C26.0274 34.2167 25.2441 34 24.3107 34C23.3941 34 22.6107 34.2167 21.9607 34.65C21.3107 35.0833 20.8191 35.6583 20.4857 36.375C20.1524 37.0917 19.9857 37.8833 19.9857 38.75C19.9857 39.6 20.1524 40.3917 20.4857 41.125C20.8191 41.8417 21.3107 42.4167 21.9607 42.85C22.6107 43.2833 23.3941 43.5 24.3107 43.5ZM32.9971 45V32.5H34.8721V34.4C35.1554 33.9 35.6054 33.425 36.2221 32.975C36.8387 32.525 37.6554 32.3 38.6721 32.3C39.5054 32.3 40.2721 32.525 40.9721 32.975C41.6887 33.4083 42.2471 34.025 42.6471 34.825C42.8137 34.5417 43.0721 34.2 43.4221 33.8C43.7887 33.4 44.2637 33.05 44.8471 32.75C45.4304 32.45 46.1304 32.3 46.9471 32.3C47.7471 32.3 48.4971 32.5083 49.1971 32.925C49.8971 33.3417 50.4637 33.9417 50.8971 34.725C51.3471 35.4917 51.5721 36.4 51.5721 37.45V45H49.6971V37.5C49.6971 36.45 49.3971 35.6083 48.7971 34.975C48.2137 34.325 47.4804 34 46.5971 34C45.6804 34 44.8887 34.3083 44.2221 34.925C43.5554 35.5417 43.2221 36.4083 43.2221 37.525V45H41.3471V37.5C41.3471 36.45 41.0471 35.6083 40.4471 34.975C39.8637 34.325 39.1304 34 38.2471 34C37.3304 34 36.5387 34.3083 35.8721 34.925C35.2054 35.5417 34.8721 36.4083 34.8721 37.525V45H32.9971ZM54.7012 49.95V32.5H56.5762V34.5C57.0428 33.8167 57.6428 33.2833 58.3762 32.9C59.1262 32.5 60.0178 32.3 61.0512 32.3C62.2678 32.3 63.3262 32.5917 64.2262 33.175C65.1428 33.7417 65.8512 34.5167 66.3512 35.5C66.8512 36.4667 67.1012 37.55 67.1012 38.75C67.1012 39.9333 66.8512 41.0167 66.3512 42C65.8512 42.9833 65.1428 43.7667 64.2262 44.35C63.3262 44.9167 62.2678 45.2 61.0512 45.2C60.0178 45.2 59.1262 45 58.3762 44.6C57.6428 44.1833 57.0428 43.6417 56.5762 42.975V49.95H54.7012ZM60.8012 43.5C61.7345 43.5 62.5262 43.2833 63.1762 42.85C63.8428 42.4167 64.3512 41.8417 64.7012 41.125C65.0512 40.3917 65.2262 39.6 65.2262 38.75C65.2262 37.8833 65.0512 37.0917 64.7012 36.375C64.3512 35.6583 63.8428 35.0833 63.1762 34.65C62.5262 34.2167 61.7345 34 60.8012 34C59.8845 34 59.1012 34.2167 58.4512 34.65C57.8012 35.0833 57.3095 35.6583 56.9762 36.375C56.6428 37.0917 56.4762 37.8833 56.4762 38.75C56.4762 39.6 56.6428 40.3917 56.9762 41.125C57.3095 41.8417 57.8012 42.4167 58.4512 42.85C59.1012 43.2833 59.8845 43.5 60.8012 43.5ZM74.8443 45.2C73.6277 45.2 72.561 44.9167 71.6443 44.35C70.7443 43.7667 70.0443 42.9833 69.5443 42C69.0443 41.0167 68.7943 39.9333 68.7943 38.75C68.7943 37.55 69.0443 36.4667 69.5443 35.5C70.0443 34.5167 70.7443 33.7417 71.6443 33.175C72.561 32.5917 73.6277 32.3 74.8443 32.3C75.8777 32.3 76.761 32.5 77.4943 32.9C78.2443 33.3 78.8527 33.8417 79.3193 34.525V32.5H81.1943V45H79.3193V43C78.8527 43.6667 78.2443 44.2 77.4943 44.6C76.761 45 75.8777 45.2 74.8443 45.2ZM75.0943 43.5C76.0277 43.5 76.811 43.2833 77.4443 42.85C78.0943 42.4167 78.586 41.8417 78.9193 41.125C79.2527 40.3917 79.4193 39.6 79.4193 38.75C79.4193 37.8833 79.2527 37.0917 78.9193 36.375C78.586 35.6583 78.0943 35.0833 77.4443 34.65C76.811 34.2167 76.0277 34 75.0943 34C74.1777 34 73.386 34.2167 72.7193 34.65C72.0527 35.0833 71.5443 35.6583 71.1943 36.375C70.8443 37.0917 70.6693 37.8833 70.6693 38.75C70.6693 39.6 70.8443 40.3917 71.1943 41.125C71.5443 41.8417 72.0527 42.4167 72.7193 42.85C73.386 43.2833 74.1777 43.5 75.0943 43.5ZM84.4375 45V32.5H86.3125V34.45C86.7625 33.85 87.3125 33.3417 87.9625 32.925C88.6125 32.5083 89.4458 32.3 90.4625 32.3C91.3292 32.3 92.1375 32.5083 92.8875 32.925C93.6542 33.325 94.2708 33.9333 94.7375 34.75C95.2208 35.55 95.4625 36.5417 95.4625 37.725V45H93.5875V37.775C93.5875 36.6417 93.2625 35.7333 92.6125 35.05C91.9625 34.35 91.1208 34 90.0875 34C89.3875 34 88.7542 34.1583 88.1875 34.475C87.6208 34.7917 87.1625 35.2417 86.8125 35.825C86.4792 36.3917 86.3125 37.05 86.3125 37.8V45H84.4375ZM99.5803 49.95L101.855 44.825L96.7553 32.5H98.8303L102.855 42.75L106.955 32.5H109.005L101.605 49.95H99.5803Z"/>
</mask>
<path d="M9.075 18.2C7.39167 18.2 5.94167 17.825 4.725 17.075C3.525 16.3083 2.6 15.2833 1.95 14C1.3 12.7167 0.975 11.2917 0.975 9.725C0.975 8.15833 1.30833 6.73333 1.975 5.45C2.64167 4.16667 3.58333 3.15 4.8 2.4C6.03333 1.63333 7.475 1.25 9.125 1.25C10.9083 1.25 12.45 1.69167 13.75 2.575C15.0667 3.44167 16.0333 4.56667 16.65 5.95H14.6C14.1 5.06667 13.4 4.36667 12.5 3.85C11.6167 3.33333 10.5417 3.075 9.275 3.075C7.94167 3.075 6.79167 3.375 5.825 3.975C4.85833 4.55833 4.11667 5.35 3.6 6.35C3.1 7.35 2.85 8.475 2.85 9.725C2.85 10.9583 3.1 12.0833 3.6 13.1C4.1 14.1 4.825 14.9 5.775 15.5C6.74167 16.0833 7.89167 16.375 9.225 16.375C10.225 16.375 11.1667 16.1583 12.05 15.725C12.95 15.2917 13.675 14.6667 14.225 13.85C14.7917 13.0333 15.075 12.05 15.075 10.9H9.025V9.2H16.8V18H15.075V15.075C14.725 15.6083 14.275 16.1167 13.725 16.6C13.175 17.0667 12.5083 17.45 11.725 17.75C10.9583 18.05 10.075 18.2 9.075 18.2ZM19.6914 18V5.5H21.5664V8.575C21.6331 8.35833 21.7581 8.075 21.9414 7.725C22.1414 7.35833 22.4247 6.99167 22.7914 6.625C23.1581 6.25833 23.6164 5.95 24.1664 5.7C24.7331 5.43333 25.3997 5.3 26.1664 5.3H26.2914V7.175H26.0664C25.1331 7.175 24.3247 7.43333 23.6414 7.95C22.9747 8.45 22.4581 9.10833 22.0914 9.925C21.7414 10.725 21.5664 11.5833 21.5664 12.5V18H19.6914ZM33.4172 18.2C32.1505 18.2 31.0505 17.9167 30.1172 17.35C29.1839 16.7667 28.4672 15.9833 27.9672 15C27.4672 14.0167 27.2172 12.9333 27.2172 11.75C27.2172 10.55 27.4672 9.46667 27.9672 8.5C28.4672 7.51667 29.1839 6.74167 30.1172 6.175C31.0505 5.59167 32.1505 5.3 33.4172 5.3C34.7005 5.3 35.8005 5.59167 36.7172 6.175C37.6505 6.74167 38.3672 7.51667 38.8672 8.5C39.3672 9.46667 39.6172 10.55 39.6172 11.75C39.6172 12.9333 39.3672 14.0167 38.8672 15C38.3672 15.9833 37.6505 16.7667 36.7172 17.35C35.8005 17.9167 34.7005 18.2 33.4172 18.2ZM33.4172 16.5C34.3505 16.5 35.1339 16.2833 35.7672 15.85C36.4172 15.4167 36.9089 14.8417 37.2422 14.125C37.5755 13.3917 37.7422 12.6 37.7422 11.75C37.7422 10.8833 37.5755 10.0917 37.2422 9.375C36.9089 8.65833 36.4172 8.08333 35.7672 7.65C35.1339 7.21667 34.3505 7 33.4172 7C32.5005 7 31.7172 7.21667 31.0672 7.65C30.4172 8.08333 29.9255 8.65833 29.5922 9.375C29.2589 10.0917 29.0922 10.8833 29.0922 11.75C29.0922 12.6 29.2589 13.3917 29.5922 14.125C29.9255 14.8417 30.4172 15.4167 31.0672 15.85C31.7172 16.2833 32.5005 16.5 33.4172 16.5ZM44.2844 18L40.3594 5.5H42.3594L45.3594 15.675L48.5344 5.5H50.5844L53.7594 15.675L56.7594 5.5H58.7594L54.8344 18H52.6844L49.5594 8.025L46.4344 18H44.2844ZM61.8617 18V7.15H59.3117V5.5H61.8617V1.025H63.7367V5.5H66.6117V7.15H63.7367V18H61.8617ZM68.666 18V0.499999H70.541V7.45C70.991 6.85 71.541 6.34167 72.191 5.925C72.841 5.50833 73.6743 5.3 74.691 5.3C75.5577 5.3 76.366 5.50833 77.116 5.925C77.8827 6.325 78.4993 6.93333 78.966 7.75C79.4493 8.55 79.691 9.54167 79.691 10.725V18H77.816V10.775C77.816 9.64167 77.491 8.73333 76.841 8.05C76.191 7.35 75.3493 7 74.316 7C73.616 7 72.9827 7.15833 72.416 7.475C71.8493 7.79167 71.391 8.24167 71.041 8.825C70.7077 9.39167 70.541 10.05 70.541 10.8V18H68.666ZM8.975 45.2C7.325 45.2 5.9 44.825 4.7 44.075C3.5 43.3083 2.575 42.2833 1.925 41C1.29167 39.7167 0.975 38.2917 0.975 36.725C0.975 35.1583 1.29167 33.7333 1.925 32.45C2.575 31.1667 3.5 30.15 4.7 29.4C5.9 28.6333 7.325 28.25 8.975 28.25C10.225 28.25 11.35 28.475 12.35 28.925C13.35 29.3583 14.2 29.9583 14.9 30.725C15.6 31.4917 16.125 32.3833 16.475 33.4H14.5C14.0833 32.3833 13.425 31.575 12.525 30.975C11.625 30.375 10.4917 30.075 9.125 30.075C7.79167 30.075 6.65 30.375 5.7 30.975C4.76667 31.5583 4.05833 32.35 3.575 33.35C3.09167 34.35 2.85 35.475 2.85 36.725C2.85 37.9583 3.09167 39.0833 3.575 40.1C4.05833 41.1 4.76667 41.9 5.7 42.5C6.65 43.0833 7.79167 43.375 9.125 43.375C10.4917 43.375 11.625 43.075 12.525 42.475C13.425 41.875 14.0833 41.0667 14.5 40.05H16.475C16.125 41.05 15.6 41.9417 14.9 42.725C14.2 43.4917 13.35 44.1 12.35 44.55C11.35 44.9833 10.225 45.2 8.975 45.2ZM24.3107 45.2C23.0441 45.2 21.9441 44.9167 21.0107 44.35C20.0774 43.7667 19.3607 42.9833 18.8607 42C18.3607 41.0167 18.1107 39.9333 18.1107 38.75C18.1107 37.55 18.3607 36.4667 18.8607 35.5C19.3607 34.5167 20.0774 33.7417 21.0107 33.175C21.9441 32.5917 23.0441 32.3 24.3107 32.3C25.5941 32.3 26.6941 32.5917 27.6107 33.175C28.5441 33.7417 29.2607 34.5167 29.7607 35.5C30.2607 36.4667 30.5107 37.55 30.5107 38.75C30.5107 39.9333 30.2607 41.0167 29.7607 42C29.2607 42.9833 28.5441 43.7667 27.6107 44.35C26.6941 44.9167 25.5941 45.2 24.3107 45.2ZM24.3107 43.5C25.2441 43.5 26.0274 43.2833 26.6607 42.85C27.3107 42.4167 27.8024 41.8417 28.1357 41.125C28.4691 40.3917 28.6357 39.6 28.6357 38.75C28.6357 37.8833 28.4691 37.0917 28.1357 36.375C27.8024 35.6583 27.3107 35.0833 26.6607 34.65C26.0274 34.2167 25.2441 34 24.3107 34C23.3941 34 22.6107 34.2167 21.9607 34.65C21.3107 35.0833 20.8191 35.6583 20.4857 36.375C20.1524 37.0917 19.9857 37.8833 19.9857 38.75C19.9857 39.6 20.1524 40.3917 20.4857 41.125C20.8191 41.8417 21.3107 42.4167 21.9607 42.85C22.6107 43.2833 23.3941 43.5 24.3107 43.5ZM32.9971 45V32.5H34.8721V34.4C35.1554 33.9 35.6054 33.425 36.2221 32.975C36.8387 32.525 37.6554 32.3 38.6721 32.3C39.5054 32.3 40.2721 32.525 40.9721 32.975C41.6887 33.4083 42.2471 34.025 42.6471 34.825C42.8137 34.5417 43.0721 34.2 43.4221 33.8C43.7887 33.4 44.2637 33.05 44.8471 32.75C45.4304 32.45 46.1304 32.3 46.9471 32.3C47.7471 32.3 48.4971 32.5083 49.1971 32.925C49.8971 33.3417 50.4637 33.9417 50.8971 34.725C51.3471 35.4917 51.5721 36.4 51.5721 37.45V45H49.6971V37.5C49.6971 36.45 49.3971 35.6083 48.7971 34.975C48.2137 34.325 47.4804 34 46.5971 34C45.6804 34 44.8887 34.3083 44.2221 34.925C43.5554 35.5417 43.2221 36.4083 43.2221 37.525V45H41.3471V37.5C41.3471 36.45 41.0471 35.6083 40.4471 34.975C39.8637 34.325 39.1304 34 38.2471 34C37.3304 34 36.5387 34.3083 35.8721 34.925C35.2054 35.5417 34.8721 36.4083 34.8721 37.525V45H32.9971ZM54.7012 49.95V32.5H56.5762V34.5C57.0428 33.8167 57.6428 33.2833 58.3762 32.9C59.1262 32.5 60.0178 32.3 61.0512 32.3C62.2678 32.3 63.3262 32.5917 64.2262 33.175C65.1428 33.7417 65.8512 34.5167 66.3512 35.5C66.8512 36.4667 67.1012 37.55 67.1012 38.75C67.1012 39.9333 66.8512 41.0167 66.3512 42C65.8512 42.9833 65.1428 43.7667 64.2262 44.35C63.3262 44.9167 62.2678 45.2 61.0512 45.2C60.0178 45.2 59.1262 45 58.3762 44.6C57.6428 44.1833 57.0428 43.6417 56.5762 42.975V49.95H54.7012ZM60.8012 43.5C61.7345 43.5 62.5262 43.2833 63.1762 42.85C63.8428 42.4167 64.3512 41.8417 64.7012 41.125C65.0512 40.3917 65.2262 39.6 65.2262 38.75C65.2262 37.8833 65.0512 37.0917 64.7012 36.375C64.3512 35.6583 63.8428 35.0833 63.1762 34.65C62.5262 34.2167 61.7345 34 60.8012 34C59.8845 34 59.1012 34.2167 58.4512 34.65C57.8012 35.0833 57.3095 35.6583 56.9762 36.375C56.6428 37.0917 56.4762 37.8833 56.4762 38.75C56.4762 39.6 56.6428 40.3917 56.9762 41.125C57.3095 41.8417 57.8012 42.4167 58.4512 42.85C59.1012 43.2833 59.8845 43.5 60.8012 43.5ZM74.8443 45.2C73.6277 45.2 72.561 44.9167 71.6443 44.35C70.7443 43.7667 70.0443 42.9833 69.5443 42C69.0443 41.0167 68.7943 39.9333 68.7943 38.75C68.7943 37.55 69.0443 36.4667 69.5443 35.5C70.0443 34.5167 70.7443 33.7417 71.6443 33.175C72.561 32.5917 73.6277 32.3 74.8443 32.3C75.8777 32.3 76.761 32.5 77.4943 32.9C78.2443 33.3 78.8527 33.8417 79.3193 34.525V32.5H81.1943V45H79.3193V43C78.8527 43.6667 78.2443 44.2 77.4943 44.6C76.761 45 75.8777 45.2 74.8443 45.2ZM75.0943 43.5C76.0277 43.5 76.811 43.2833 77.4443 42.85C78.0943 42.4167 78.586 41.8417 78.9193 41.125C79.2527 40.3917 79.4193 39.6 79.4193 38.75C79.4193 37.8833 79.2527 37.0917 78.9193 36.375C78.586 35.6583 78.0943 35.0833 77.4443 34.65C76.811 34.2167 76.0277 34 75.0943 34C74.1777 34 73.386 34.2167 72.7193 34.65C72.0527 35.0833 71.5443 35.6583 71.1943 36.375C70.8443 37.0917 70.6693 37.8833 70.6693 38.75C70.6693 39.6 70.8443 40.3917 71.1943 41.125C71.5443 41.8417 72.0527 42.4167 72.7193 42.85C73.386 43.2833 74.1777 43.5 75.0943 43.5ZM84.4375 45V32.5H86.3125V34.45C86.7625 33.85 87.3125 33.3417 87.9625 32.925C88.6125 32.5083 89.4458 32.3 90.4625 32.3C91.3292 32.3 92.1375 32.5083 92.8875 32.925C93.6542 33.325 94.2708 33.9333 94.7375 34.75C95.2208 35.55 95.4625 36.5417 95.4625 37.725V45H93.5875V37.775C93.5875 36.6417 93.2625 35.7333 92.6125 35.05C91.9625 34.35 91.1208 34 90.0875 34C89.3875 34 88.7542 34.1583 88.1875 34.475C87.6208 34.7917 87.1625 35.2417 86.8125 35.825C86.4792 36.3917 86.3125 37.05 86.3125 37.8V45H84.4375ZM99.5803 49.95L101.855 44.825L96.7553 32.5H98.8303L102.855 42.75L106.955 32.5H109.005L101.605 49.95H99.5803Z" fill="black"/>
<path d="M4.725 17.075L4.50962 17.4121L4.5151 17.4155L4.725 17.075ZM1.95 14L1.59316 14.1807L1.95 14ZM1.975 5.45L2.32996 5.63439L1.975 5.45ZM4.8 2.4L5.0099 2.74051L5.01117 2.73971L4.8 2.4ZM13.75 2.575L13.5252 2.90588L13.5301 2.90911L13.75 2.575ZM16.65 5.95V6.35H17.2663L17.0153 5.78714L16.65 5.95ZM14.6 5.95L14.2519 6.14704L14.3668 6.35H14.6V5.95ZM12.5 3.85L12.298 4.19529L12.3009 4.1969L12.5 3.85ZM5.825 3.975L6.03168 4.3175L6.03595 4.31486L5.825 3.975ZM3.6 6.35L3.2446 6.16638L3.24223 6.17111L3.6 6.35ZM3.6 13.1L3.24105 13.2765L3.24223 13.2789L3.6 13.1ZM5.775 15.5L5.56136 15.8383L5.56833 15.8425L5.775 15.5ZM12.05 15.725L11.8765 15.3646L11.8738 15.3659L12.05 15.725ZM14.225 13.85L13.8963 13.6219L13.8932 13.6266L14.225 13.85ZM15.075 10.9H15.475V10.5H15.075V10.9ZM9.025 10.9H8.625V11.3H9.025V10.9ZM9.025 9.2V8.8H8.625V9.2H9.025ZM16.8 9.2H17.2V8.8H16.8V9.2ZM16.8 18V18.4H17.2V18H16.8ZM15.075 18H14.675V18.4H15.075V18ZM15.075 15.075H15.475V13.7364L14.7406 14.8555L15.075 15.075ZM13.725 16.6L13.9838 16.9051L13.989 16.9005L13.725 16.6ZM11.725 17.75L11.5819 17.3764L11.5792 17.3775L11.725 17.75ZM9.075 17.8C7.45245 17.8 6.07799 17.4391 4.9349 16.7345L4.5151 17.4155C5.80534 18.2109 7.33089 18.6 9.075 18.6V17.8ZM4.94036 16.7379C3.8013 16.0102 2.92486 15.0395 2.30684 13.8193L1.59316 14.1807C2.27514 15.5272 3.2487 16.6065 4.50964 17.4121L4.94036 16.7379ZM2.30684 13.8193C1.68768 12.5968 1.375 11.2346 1.375 9.725H0.575C0.575 11.3488 0.912318 12.8365 1.59316 14.1807L2.30684 13.8193ZM1.375 9.725C1.375 8.21705 1.69531 6.8561 2.32996 5.63439L1.62004 5.2656C0.921358 6.61056 0.575 8.09961 0.575 9.725H1.375ZM2.32996 5.63439C2.9637 4.41446 3.85558 3.45207 5.0099 2.7405L4.5901 2.0595C3.31109 2.84793 2.31964 3.91887 1.62004 5.2656L2.32996 5.63439ZM5.01117 2.73971C6.17282 2.01761 7.53922 1.65 9.125 1.65V0.85C7.41078 0.85 5.89385 1.24906 4.58883 2.06029L5.01117 2.73971ZM9.125 1.65C10.8393 1.65 12.3002 2.07347 13.5252 2.90585L13.9748 2.24415C12.5998 1.30987 10.9773 0.85 9.125 0.85V1.65ZM13.5301 2.90911C14.7856 3.73557 15.7004 4.80227 16.2847 6.11286L17.0153 5.78714C16.3662 4.33106 15.3477 3.14777 13.9699 2.24088L13.5301 2.90911ZM16.65 5.55H14.6V6.35H16.65V5.55ZM14.9481 5.75296C14.412 4.80577 13.6599 4.05463 12.6991 3.5031L12.3009 4.1969C13.1401 4.67871 13.788 5.32756 14.2519 6.14704L14.9481 5.75296ZM12.702 3.50472C11.7444 2.94462 10.5959 2.675 9.275 2.675V3.475C10.4874 3.475 11.489 3.72205 12.298 4.19527L12.702 3.50472ZM9.275 2.675C7.88013 2.675 6.65427 2.98949 5.61406 3.63514L6.03595 4.31486C6.92906 3.76051 8.0032 3.475 9.275 3.475V2.675ZM5.61833 3.63252C4.58858 4.25393 3.79534 5.1005 3.24463 6.16639L3.95537 6.53361C4.43799 5.5995 5.12809 4.86274 6.03167 4.31747L5.61833 3.63252ZM3.24223 6.17111C2.71132 7.23292 2.45 8.42031 2.45 9.725H3.25C3.25 8.52969 3.48868 7.46708 3.95777 6.52888L3.24223 6.17111ZM2.45 9.725C2.45 11.014 2.71171 12.2002 3.24106 13.2765L3.95894 12.9235C3.48829 11.9665 3.25 10.9026 3.25 9.725H2.45ZM3.24223 13.2789C3.77503 14.3445 4.55004 15.1994 5.5614 15.8382L5.9886 15.1618C5.09996 14.6006 4.42497 13.8555 3.95777 12.9211L3.24223 13.2789ZM5.56833 15.8425C6.60786 16.4698 7.83214 16.775 9.225 16.775V15.975C7.9512 15.975 6.87548 15.6969 5.98167 15.1575L5.56833 15.8425ZM9.225 16.775C10.285 16.775 11.2871 16.5448 12.2262 16.0841L11.8738 15.3659C11.0463 15.7719 10.165 15.975 9.225 15.975V16.775ZM12.2235 16.0854C13.1865 15.6217 13.9665 14.9499 14.5568 14.0734L13.8932 13.6266C13.3835 14.3834 12.7135 14.9616 11.8765 15.3646L12.2235 16.0854ZM14.5536 14.078C15.1738 13.1843 15.475 12.1183 15.475 10.9H14.675C14.675 11.9817 14.4096 12.8823 13.8964 13.622L14.5536 14.078ZM15.075 10.5H9.025V11.3H15.075V10.5ZM9.425 10.9V9.2H8.625V10.9H9.425ZM9.025 9.6H16.8V8.8H9.025V9.6ZM16.4 9.2V18H17.2V9.2H16.4ZM16.8 17.6H15.075V18.4H16.8V17.6ZM15.475 18V15.075H14.675V18H15.475ZM14.7406 14.8555C14.413 15.3548 13.9879 15.8365 13.461 16.2995L13.989 16.9005C14.5621 16.3968 15.0371 15.8619 15.4094 15.2945L14.7406 14.8555ZM13.4662 16.295C12.9557 16.7281 12.3298 17.09 11.5819 17.3765L11.8681 18.1235C12.6868 17.81 13.3943 17.4052 13.9838 16.905L13.4662 16.295ZM11.5792 17.3775C10.8678 17.6559 10.0355 17.8 9.075 17.8V18.6C10.1145 18.6 11.0489 18.4441 11.8708 18.1225L11.5792 17.3775ZM19.6914 18H19.2914V18.4H19.6914V18ZM19.6914 5.5V5.1H19.2914V5.5H19.6914ZM21.5664 5.5H21.9664V5.1H21.5664V5.5ZM21.5664 8.575H21.1664L21.9487 8.69263L21.5664 8.575ZM21.9414 7.725L21.5902 7.53343L21.5871 7.5394L21.9414 7.725ZM22.7914 6.625L23.0742 6.90784L22.7914 6.625ZM24.1664 5.7L24.3319 6.06418L24.3367 6.06193L24.1664 5.7ZM26.2914 5.3H26.6914V4.9H26.2914V5.3ZM26.2914 7.175V7.575H26.6914V7.175H26.2914ZM23.6414 7.95L23.8814 8.27L23.8827 8.26906L23.6414 7.95ZM22.0914 9.925L21.7265 9.76116L21.7249 9.76467L22.0914 9.925ZM21.5664 18V18.4H21.9664V18H21.5664ZM20.0914 18V5.5H19.2914V18H20.0914ZM19.6914 5.9H21.5664V5.1H19.6914V5.9ZM21.1664 5.5V8.575H21.9664V5.5H21.1664ZM21.9487 8.69263C22.0048 8.51049 22.1167 8.25231 22.2957 7.9106L21.5871 7.5394C21.3994 7.89769 21.2614 8.20617 21.1841 8.45737L21.9487 8.69263ZM22.2926 7.91654C22.4705 7.59036 22.7284 7.25372 23.0742 6.90784L22.5086 6.34216C22.1211 6.72961 21.8123 7.12631 21.5902 7.53346L22.2926 7.91654ZM23.0742 6.90784C23.4019 6.58019 23.8185 6.29752 24.3319 6.06415L24.0009 5.33585C23.4143 5.60248 22.9142 5.93648 22.5086 6.34216L23.0742 6.90784ZM24.3367 6.06193C24.8395 5.82531 25.4457 5.7 26.1664 5.7V4.9C25.3538 4.9 24.6266 5.04136 23.9961 5.33807L24.3367 6.06193ZM26.1664 5.7H26.2914V4.9H26.1664V5.7ZM25.8914 5.3V7.175H26.6914V5.3H25.8914ZM26.2914 6.775H26.0664V7.575H26.2914V6.775ZM26.0664 6.775C25.0542 6.775 24.1593 7.05698 23.4002 7.63094L23.8827 8.26906C24.4902 7.80969 25.2119 7.575 26.0664 7.575V6.775ZM23.4014 7.63C22.6766 8.17364 22.1188 8.88743 21.7265 9.76116L22.4563 10.0888C22.7974 9.32923 23.2729 8.72636 23.8814 8.27L23.4014 7.63ZM21.7249 9.76467C21.3517 10.6177 21.1664 11.5309 21.1664 12.5H21.9664C21.9664 11.6357 22.1311 10.8323 22.4579 10.0853L21.7249 9.76467ZM21.1664 12.5V18H21.9664V12.5H21.1664ZM21.5664 17.6H19.6914V18.4H21.5664V17.6ZM30.1172 17.35L29.9052 17.6892L29.9096 17.6919L30.1172 17.35ZM27.9672 8.5L28.3225 8.68377L28.3237 8.6813L27.9672 8.5ZM30.1172 6.175L30.3248 6.51694L30.3292 6.5142L30.1172 6.175ZM36.7172 6.175L36.5024 6.51254L36.5096 6.51691L36.7172 6.175ZM38.8672 8.5L38.5106 8.6813L38.5119 8.68377L38.8672 8.5ZM38.8672 15L38.5106 14.8187H38.5106L38.8672 15ZM36.7172 17.35L36.9275 17.6902L36.9292 17.6892L36.7172 17.35ZM35.7672 15.85L35.5453 15.5172L35.5413 15.5199L35.7672 15.85ZM37.2422 14.125L37.6049 14.2937L37.6063 14.2905L37.2422 14.125ZM37.2422 9.375L37.6049 9.20631V9.20631L37.2422 9.375ZM35.7672 7.65L35.5413 7.98015L35.5453 7.98282L35.7672 7.65ZM31.0672 7.65L30.8453 7.31718L31.0672 7.65ZM29.5922 9.375L29.2295 9.20631L29.5922 9.375ZM29.5922 14.125L29.228 14.2905L29.2295 14.2937L29.5922 14.125ZM33.4172 17.8C32.2118 17.8 31.1861 17.531 30.3248 17.0081L29.9096 17.6919C30.915 18.3023 32.0892 18.6 33.4172 18.6V17.8ZM30.3292 17.0108C29.4576 16.4661 28.7909 15.7374 28.3237 14.8187L27.6106 15.1813C28.1435 16.2293 28.9101 17.0673 29.9052 17.6892L30.3292 17.0108ZM28.3237 14.8187C27.8544 13.8956 27.6172 12.875 27.6172 11.75H26.8172C26.8172 12.9917 27.08 14.1378 27.6106 15.1813L28.3237 14.8187ZM27.6172 11.75C27.6172 10.6073 27.8548 9.58799 28.3225 8.68377L27.6119 8.31623C27.0796 9.34535 26.8172 10.4927 26.8172 11.75H27.6172ZM28.3237 8.6813C28.7904 7.7636 29.4558 7.04453 30.3248 6.51691L29.9096 5.83308C28.9119 6.4388 28.144 7.26973 27.6106 8.3187L28.3237 8.6813ZM30.3292 6.5142C31.1898 5.97631 32.2139 5.7 33.4172 5.7V4.9C32.0871 4.9 30.9112 5.20703 29.9052 5.8358L30.3292 6.5142ZM33.4172 5.7C34.6384 5.7 35.6608 5.97688 36.5024 6.51246L36.9319 5.83753C35.9402 5.20645 34.7626 4.9 33.4172 4.9V5.7ZM36.5096 6.51691C37.3786 7.04453 38.044 7.7636 38.5106 8.6813L39.2237 8.3187C38.6904 7.26973 37.9224 6.4388 36.9248 5.83308L36.5096 6.51691ZM38.5119 8.68377C38.9796 9.58799 39.2172 10.6073 39.2172 11.75H40.0172C40.0172 10.4927 39.7548 9.34535 39.2225 8.31623L38.5119 8.68377ZM39.2172 11.75C39.2172 12.875 38.98 13.8956 38.5106 14.8187L39.2237 15.1813C39.7544 14.1378 40.0172 12.9917 40.0172 11.75H39.2172ZM38.5106 14.8187C38.0435 15.7374 37.3767 16.4661 36.5052 17.0108L36.9292 17.6892C37.9243 17.0672 38.6909 16.2293 39.2237 15.1813L38.5106 14.8187ZM36.5069 17.0098C35.6646 17.5305 34.6405 17.8 33.4172 17.8V18.6C34.7605 18.6 35.9365 18.3029 36.9275 17.6902L36.5069 17.0098ZM33.4172 16.9C34.4135 16.9 35.28 16.668 35.9931 16.1801L35.5413 15.5199C34.9877 15.8986 34.2876 16.1 33.4172 16.1V16.9ZM35.9891 16.1828C36.7009 15.7082 37.241 15.0761 37.6049 14.2937L36.8795 13.9563C36.5768 14.6072 36.1334 15.1251 35.5453 15.5172L35.9891 16.1828ZM37.6063 14.2905C37.9646 13.5024 38.1422 12.6539 38.1422 11.75H37.3422C37.3422 12.5461 37.1865 13.281 36.878 13.9595L37.6063 14.2905ZM38.1422 11.75C38.1422 10.8307 37.9651 9.98074 37.6049 9.20631L36.8795 9.54369C37.186 10.2026 37.3422 10.9359 37.3422 11.75H38.1422ZM37.6049 9.20631C37.241 8.42387 36.7009 7.79176 35.9891 7.31718L35.5453 7.98282C36.1334 8.37491 36.5768 8.8928 36.8795 9.54369L37.6049 9.20631ZM35.9931 7.31988C35.28 6.83197 34.4135 6.6 33.4172 6.6V7.4C34.2876 7.4 34.9877 7.60136 35.5413 7.98012L35.9931 7.31988ZM33.4172 6.6C32.4355 6.6 31.5718 6.83287 30.8453 7.31718L31.2891 7.98282C31.8626 7.60046 32.5655 7.4 33.4172 7.4V6.6ZM30.8453 7.31718C30.1334 7.79176 29.5934 8.42387 29.2295 9.20631L29.9549 9.54369C30.2576 8.8928 30.7009 8.37491 31.2891 7.98282L30.8453 7.31718ZM29.2295 9.20631C28.8693 9.98074 28.6922 10.8307 28.6922 11.75H29.4922C29.4922 10.9359 29.6484 10.2026 29.9549 9.54369L29.2295 9.20631ZM28.6922 11.75C28.6922 12.6539 28.8698 13.5024 29.228 14.2905L29.9563 13.9595C29.6479 13.281 29.4922 12.5461 29.4922 11.75H28.6922ZM29.2295 14.2937C29.5934 15.0761 30.1334 15.7082 30.8453 16.1828L31.2891 15.5172C30.7009 15.1251 30.2576 14.6072 29.9549 13.9563L29.2295 14.2937ZM30.8453 16.1828C31.5718 16.6671 32.4355 16.9 33.4172 16.9V16.1C32.5655 16.1 31.8626 15.8995 31.2891 15.5172L30.8453 16.1828ZM44.2844 18L43.9027 18.1198L43.9907 18.4H44.2844V18ZM40.3594 5.5V5.1H39.8145L39.9777 5.61983L40.3594 5.5ZM42.3594 5.5L42.743 5.38688L42.6585 5.1H42.3594V5.5ZM45.3594 15.675L44.9757 15.7881L45.3485 17.0526L45.7412 15.7941L45.3594 15.675ZM48.5344 5.5V5.1H48.2402L48.1525 5.38085L48.5344 5.5ZM50.5844 5.5L50.9662 5.38085L50.8786 5.1H50.5844V5.5ZM53.7594 15.675L53.3775 15.7941L53.7702 17.0526L54.143 15.7881L53.7594 15.675ZM56.7594 5.5V5.1H56.4603L56.3757 5.38688L56.7594 5.5ZM58.7594 5.5L59.141 5.61983L59.3042 5.1H58.7594V5.5ZM54.8344 18V18.4H55.128L55.216 18.1198L54.8344 18ZM52.6844 18L52.3027 18.1196L52.3905 18.4H52.6844V18ZM49.5594 8.025L49.9411 7.90542L49.5594 6.68701L49.1777 7.90542L49.5594 8.025ZM46.4344 18V18.4H46.7282L46.8161 18.1196L46.4344 18ZM44.666 17.8802L40.741 5.38017L39.9777 5.61983L43.9027 18.1198L44.666 17.8802ZM40.3594 5.9H42.3594V5.1H40.3594V5.9ZM41.9757 5.61312L44.9757 15.7881L45.743 15.5619L42.743 5.38688L41.9757 5.61312ZM45.7412 15.7941L48.9162 5.61915L48.1525 5.38085L44.9775 15.5559L45.7412 15.7941ZM48.5344 5.9H50.5844V5.1H48.5344V5.9ZM50.2025 5.61915L53.3775 15.7941L54.1412 15.5559L50.9662 5.38085L50.2025 5.61915ZM54.143 15.7881L57.143 5.61312L56.3757 5.38688L53.3757 15.5619L54.143 15.7881ZM56.7594 5.9H58.7594V5.1H56.7594V5.9ZM58.3777 5.38017L54.4527 17.8802L55.216 18.1198L59.141 5.61983L58.3777 5.38017ZM54.8344 17.6H52.6844V18.4H54.8344V17.6ZM53.0661 17.8804L49.9411 7.90542L49.1777 8.14458L52.3027 18.1196L53.0661 17.8804ZM49.1777 7.90542L46.0527 17.8804L46.8161 18.1196L49.9411 8.14458L49.1777 7.90542ZM46.4344 17.6H44.2844V18.4H46.4344V17.6ZM61.8617 18H61.4617V18.4H61.8617V18ZM61.8617 7.15H62.2617V6.75H61.8617V7.15ZM59.3117 7.15H58.9117V7.55H59.3117V7.15ZM59.3117 5.5V5.1H58.9117V5.5H59.3117ZM61.8617 5.5V5.9H62.2617V5.5H61.8617ZM61.8617 1.025V0.625H61.4617V1.025H61.8617ZM63.7367 1.025H64.1367V0.625H63.7367V1.025ZM63.7367 5.5H63.3367V5.9H63.7367V5.5ZM66.6117 5.5H67.0117V5.1H66.6117V5.5ZM66.6117 7.15V7.55H67.0117V7.15H66.6117ZM63.7367 7.15V6.75H63.3367V7.15H63.7367ZM63.7367 18V18.4H64.1367V18H63.7367ZM62.2617 18V7.15H61.4617V18H62.2617ZM61.8617 6.75H59.3117V7.55H61.8617V6.75ZM59.7117 7.15V5.5H58.9117V7.15H59.7117ZM59.3117 5.9H61.8617V5.1H59.3117V5.9ZM62.2617 5.5V1.025H61.4617V5.5H62.2617ZM61.8617 1.425H63.7367V0.625H61.8617V1.425ZM63.3367 1.025V5.5H64.1367V1.025H63.3367ZM63.7367 5.9H66.6117V5.1H63.7367V5.9ZM66.2117 5.5V7.15H67.0117V5.5H66.2117ZM66.6117 6.75H63.7367V7.55H66.6117V6.75ZM63.3367 7.15V18H64.1367V7.15H63.3367ZM63.7367 17.6H61.8617V18.4H63.7367V17.6ZM68.666 18H68.266V18.4H68.666V18ZM68.666 0.499999V0.0999987H68.266V0.499999H68.666ZM70.541 0.499999H70.941V0.0999987H70.541V0.499999ZM70.541 7.45H70.141V8.65L70.861 7.69L70.541 7.45ZM72.191 5.925L72.4069 6.26175L72.191 5.925ZM77.116 5.925L76.9217 6.27478L76.931 6.27963L77.116 5.925ZM78.966 7.75L78.6186 7.94851L78.6236 7.95685L78.966 7.75ZM79.691 18V18.4H80.091V18H79.691ZM77.816 18H77.416V18.4H77.816V18ZM76.841 8.05L76.5479 8.3222L76.5512 8.32568L76.841 8.05ZM72.416 7.475L72.2209 7.12582L72.416 7.475ZM71.041 8.825L70.698 8.61919L70.6962 8.62219L71.041 8.825ZM70.541 18V18.4H70.941V18H70.541ZM69.066 18V0.499999H68.266V18H69.066ZM68.666 0.899999H70.541V0.0999987H68.666V0.899999ZM70.141 0.499999V7.45H70.941V0.499999H70.141ZM70.861 7.69C71.2815 7.12934 71.7959 6.65341 72.4069 6.26175L71.9752 5.58825C71.2861 6.02992 70.7005 6.57066 70.221 7.21L70.861 7.69ZM72.4069 6.26175C72.975 5.89757 73.7271 5.7 74.691 5.7V4.9C73.6216 4.9 72.707 5.1191 71.9752 5.58825L72.4069 6.26175ZM74.691 5.7C75.4904 5.7 76.2318 5.89136 76.9218 6.27466L77.3103 5.57534C76.5002 5.12531 75.6249 4.9 74.691 4.9V5.7ZM76.931 6.27963C77.6238 6.64109 78.1866 7.19224 78.6187 7.94845L79.3133 7.55154C78.8121 6.67442 78.1416 6.00891 77.301 5.57037L76.931 6.27963ZM78.6236 7.95685C79.0605 8.67985 79.291 9.59542 79.291 10.725H80.091C80.091 9.48792 79.8382 8.42014 79.3084 7.54315L78.6236 7.95685ZM79.291 10.725V18H80.091V10.725H79.291ZM79.691 17.6H77.816V18.4H79.691V17.6ZM78.216 18V10.775H77.416V18H78.216ZM78.216 10.775C78.216 9.56102 77.8654 8.54653 77.1308 7.77431L76.5512 8.32568C77.1166 8.92013 77.416 9.72232 77.416 10.775H78.216ZM77.1341 7.77782C76.4018 6.98916 75.4504 6.6 74.316 6.6V7.4C75.2483 7.4 75.9802 7.71084 76.5479 8.32218L77.1341 7.77782ZM74.316 6.6C73.5532 6.6 72.8518 6.77324 72.2209 7.12582L72.6111 7.82418C73.1135 7.54343 73.6788 7.4 74.316 7.4V6.6ZM72.2209 7.12582C71.5903 7.47822 71.0822 7.97897 70.698 8.6192L71.384 9.0308C71.6999 8.50436 72.1084 8.10512 72.6111 7.82418L72.2209 7.12582ZM70.6962 8.62219C70.3219 9.25858 70.141 9.98891 70.141 10.8H70.941C70.941 10.1111 71.0935 9.52475 71.3858 9.02781L70.6962 8.62219ZM70.141 10.8V18H70.941V10.8H70.141ZM70.541 17.6H68.666V18.4H70.541V17.6ZM4.7 44.075L4.48463 44.4121L4.488 44.4142L4.7 44.075ZM1.925 41L1.56628 41.177L1.56816 41.1807L1.925 41ZM1.925 32.45L1.56814 32.2693L1.5663 32.273L1.925 32.45ZM4.7 29.4L4.91201 29.7392L4.91536 29.7371L4.7 29.4ZM12.35 28.925L12.1858 29.2898L12.191 29.292L12.35 28.925ZM16.475 33.4V33.8H17.0357L16.8532 33.2698L16.475 33.4ZM14.5 33.4L14.1299 33.5517L14.2316 33.8H14.5V33.4ZM12.525 30.975L12.7469 30.6422H12.7469L12.525 30.975ZM5.7 30.975L5.912 31.3142L5.9136 31.3132L5.7 30.975ZM3.575 33.35L3.21486 33.1759L3.575 33.35ZM3.575 40.1L3.21374 40.2717L3.21486 40.2741L3.575 40.1ZM5.7 42.5L5.48365 42.8365L5.49069 42.8409L5.7 42.5ZM12.525 42.475L12.7469 42.8078L12.525 42.475ZM14.5 40.05V39.65H14.2316L14.1299 39.8983L14.5 40.05ZM16.475 40.05L16.8525 40.1821L17.0388 39.65H16.475V40.05ZM14.9 42.725L15.1954 42.9947L15.1983 42.9915L14.9 42.725ZM12.35 44.55L12.5091 44.9171L12.5141 44.9148L12.35 44.55ZM8.975 44.8C7.38731 44.8 6.03848 44.4399 4.912 43.7358L4.488 44.4142C5.76152 45.2101 7.26269 45.6 8.975 45.6V44.8ZM4.91536 43.7379C3.7763 43.0102 2.89986 42.0395 2.28184 40.8193L1.56816 41.1807C2.25014 42.5272 3.2237 43.6065 4.48464 44.4121L4.91536 43.7379ZM2.2837 40.823C1.68003 39.5998 1.375 38.2362 1.375 36.725H0.575C0.575 38.3472 0.9033 39.8336 1.5663 41.177L2.2837 40.823ZM1.375 36.725C1.375 35.2138 1.68003 33.8502 2.2837 32.627L1.5663 32.273C0.9033 33.6164 0.575 35.1028 0.575 36.725H1.375ZM2.28184 32.6307C2.89948 31.4113 3.77489 30.4499 4.912 29.7392L4.488 29.0608C3.22511 29.8501 2.25052 30.922 1.56816 32.2693L2.28184 32.6307ZM4.91536 29.7371C6.04136 29.0177 7.38895 28.65 8.975 28.65V27.85C7.26105 27.85 5.75864 28.249 4.48464 29.0629L4.91536 29.7371ZM8.975 28.65C10.1763 28.65 11.2442 28.866 12.1859 29.2898L12.5141 28.5602C11.4558 28.084 10.2737 27.85 8.975 27.85V28.65ZM12.191 29.292C13.1418 29.704 13.9446 30.2718 14.6046 30.9947L15.1954 30.4553C14.4554 29.6449 13.5582 29.0126 12.509 28.558L12.191 29.292ZM14.6046 30.9947C15.2664 31.7196 15.7639 32.5633 16.0968 33.5302L16.8532 33.2698C16.4861 32.2033 15.9336 31.2638 15.1954 30.4553L14.6046 30.9947ZM16.475 33H14.5V33.8H16.475V33ZM14.8701 33.2483C14.4237 32.1591 13.7144 31.2872 12.7469 30.6422L12.3031 31.3078C13.1356 31.8628 13.743 32.6076 14.1299 33.5517L14.8701 33.2483ZM12.7469 30.6422C11.7658 29.9881 10.5499 29.675 9.125 29.675V30.475C10.4335 30.475 11.4842 30.7619 12.3031 31.3078L12.7469 30.6422ZM9.125 29.675C7.73035 29.675 6.51143 29.9894 5.4864 30.6368L5.9136 31.3132C6.78857 30.7606 7.85298 30.475 9.125 30.475V29.675ZM5.488 30.6358C4.49009 31.2595 3.7307 32.1087 3.21486 33.1759L3.93514 33.5241C4.38597 32.5913 5.04324 31.8572 5.912 31.3142L5.488 30.6358ZM3.21486 33.1759C2.70217 34.2367 2.45 35.4223 2.45 36.725H3.25C3.25 35.5277 3.48116 34.4633 3.93514 33.5241L3.21486 33.1759ZM2.45 36.725C2.45 38.012 2.70254 39.1964 3.21375 40.2717L3.93625 39.9283C3.48079 38.9702 3.25 37.9047 3.25 36.725H2.45ZM3.21486 40.2741C3.73023 41.3403 4.48831 42.1966 5.4837 42.8365L5.9163 42.1635C5.04503 41.6034 4.38644 40.8597 3.93514 39.9259L3.21486 40.2741ZM5.49069 42.8409C6.51504 43.4699 7.73237 43.775 9.125 43.775V42.975C7.85096 42.975 6.78496 42.6968 5.90931 42.1591L5.49069 42.8409ZM9.125 43.775C10.5499 43.775 11.7658 43.4619 12.7469 42.8078L12.3031 42.1422C11.4842 42.6881 10.4335 42.975 9.125 42.975V43.775ZM12.7469 42.8078C13.7144 42.1628 14.4237 41.2909 14.8701 40.2017L14.1299 39.8983C13.743 40.8424 13.1356 41.5872 12.3031 42.1422L12.7469 42.8078ZM14.5 40.45H16.475V39.65H14.5V40.45ZM16.0975 39.9179C15.7647 40.8687 15.2664 41.7146 14.6017 42.4585L15.1983 42.9915C15.9336 42.1687 16.4853 41.2313 16.8525 40.1821L16.0975 39.9179ZM14.6046 42.4553C13.9435 43.1794 13.1389 43.7563 12.1859 44.1852L12.5141 44.9148C13.5611 44.4437 14.4565 43.8039 15.1954 42.9947L14.6046 42.4553ZM12.191 44.183C11.248 44.5916 10.1783 44.8 8.975 44.8V45.6C10.2717 45.6 11.452 45.3751 12.509 44.917L12.191 44.183ZM21.0107 44.35L20.7987 44.6892L20.8032 44.6919L21.0107 44.35ZM18.8607 35.5L19.216 35.6838L19.2173 35.6813L18.8607 35.5ZM21.0107 33.175L21.2184 33.5169L21.2227 33.5142L21.0107 33.175ZM27.6107 33.175L27.3959 33.5125L27.4032 33.5169L27.6107 33.175ZM29.7607 35.5L29.4042 35.6813L29.4055 35.6838L29.7607 35.5ZM29.7607 42L29.4042 41.8187L29.7607 42ZM27.6107 44.35L27.8211 44.6902L27.8227 44.6892L27.6107 44.35ZM26.6607 42.85L26.4388 42.5172L26.4349 42.5199L26.6607 42.85ZM28.1357 41.125L28.4984 41.2937L28.4999 41.2905L28.1357 41.125ZM28.1357 36.375L28.4984 36.2063L28.1357 36.375ZM26.6607 34.65L26.4349 34.9801L26.4389 34.9828L26.6607 34.65ZM21.9607 34.65L21.7389 34.3172L21.9607 34.65ZM20.4857 36.375L20.1231 36.2063L20.4857 36.375ZM20.4857 41.125L20.1216 41.2905L20.1231 41.2937L20.4857 41.125ZM24.3107 44.8C23.1054 44.8 22.0796 44.531 21.2183 44.0081L20.8032 44.6919C21.8085 45.3023 22.9828 45.6 24.3107 45.6V44.8ZM21.2227 44.0108C20.3512 43.4661 19.6844 42.7374 19.2173 41.8187L18.5042 42.1813C19.0371 43.2293 19.8036 44.0672 20.7987 44.6892L21.2227 44.0108ZM19.2173 41.8187C18.7479 40.8956 18.5107 39.875 18.5107 38.75H17.7107C17.7107 39.9917 17.9736 41.1378 18.5042 42.1813L19.2173 41.8187ZM18.5107 38.75C18.5107 37.6073 18.7483 36.588 19.216 35.6838L18.5055 35.3162C17.9732 36.3453 17.7107 37.4927 17.7107 38.75H18.5107ZM19.2173 35.6813C19.6839 34.7636 20.3493 34.0445 21.2183 33.5169L20.8032 32.8331C19.8055 33.4388 19.0376 34.2697 18.5042 35.3187L19.2173 35.6813ZM21.2227 33.5142C22.0834 32.9763 23.1075 32.7 24.3107 32.7V31.9C22.9807 31.9 21.8048 32.207 20.7987 32.8358L21.2227 33.5142ZM24.3107 32.7C25.532 32.7 26.5544 32.9769 27.396 33.5125L27.8255 32.8375C26.8338 32.2064 25.6562 31.9 24.3107 31.9V32.7ZM27.4032 33.5169C28.2722 34.0445 28.9376 34.7636 29.4042 35.6813L30.1173 35.3187C29.5839 34.2697 28.816 33.4388 27.8183 32.8331L27.4032 33.5169ZM29.4055 35.6838C29.8732 36.588 30.1107 37.6073 30.1107 38.75H30.9107C30.9107 37.4927 30.6483 36.3453 30.116 35.3162L29.4055 35.6838ZM30.1107 38.75C30.1107 39.875 29.8736 40.8956 29.4042 41.8187L30.1173 42.1813C30.6479 41.1378 30.9107 39.9917 30.9107 38.75H30.1107ZM29.4042 41.8187C28.9371 42.7374 28.2703 43.4661 27.3987 44.0108L27.8227 44.6892C28.8179 44.0672 29.5844 43.2293 30.1173 42.1813L29.4042 41.8187ZM27.4004 44.0098C26.5581 44.5305 25.5341 44.8 24.3107 44.8V45.6C25.6541 45.6 26.83 45.3029 27.8211 44.6902L27.4004 44.0098ZM24.3107 43.9C25.307 43.9 26.1735 43.668 26.8866 43.1801L26.4349 42.5199C25.8813 42.8986 25.1811 43.1 24.3107 43.1V43.9ZM26.8826 43.1828C27.5945 42.7082 28.1345 42.0761 28.4984 41.2937L27.7731 40.9563C27.4703 41.6072 27.027 42.1251 26.4389 42.5172L26.8826 43.1828ZM28.4999 41.2905C28.8581 40.5024 29.0357 39.6539 29.0357 38.75H28.2357C28.2357 39.5461 28.08 40.281 27.7716 40.9595L28.4999 41.2905ZM29.0357 38.75C29.0357 37.8307 28.8586 36.9807 28.4984 36.2063L27.7731 36.5437C28.0795 37.2026 28.2357 37.9359 28.2357 38.75H29.0357ZM28.4984 36.2063C28.1345 35.4239 27.5945 34.7918 26.8826 34.3172L26.4389 34.9828C27.027 35.3749 27.4703 35.8928 27.7731 36.5437L28.4984 36.2063ZM26.8866 34.3199C26.1735 33.832 25.307 33.6 24.3107 33.6V34.4C25.1811 34.4 25.8813 34.6014 26.4349 34.9801L26.8866 34.3199ZM24.3107 33.6C23.3291 33.6 22.4653 33.8329 21.7389 34.3172L22.1826 34.9828C22.7562 34.6005 23.4591 34.4 24.3107 34.4V33.6ZM21.7389 34.3172C21.027 34.7918 20.487 35.4239 20.1231 36.2063L20.8484 36.5437C21.1512 35.8928 21.5945 35.3749 22.1826 34.9828L21.7389 34.3172ZM20.1231 36.2063C19.7629 36.9807 19.5857 37.8307 19.5857 38.75H20.3857C20.3857 37.9359 20.542 37.2026 20.8484 36.5437L20.1231 36.2063ZM19.5857 38.75C19.5857 39.6539 19.7633 40.5024 20.1216 41.2905L20.8499 40.9595C20.5415 40.281 20.3857 39.5461 20.3857 38.75H19.5857ZM20.1231 41.2937C20.487 42.0761 21.027 42.7082 21.7389 43.1828L22.1826 42.5172C21.5945 42.1251 21.1512 41.6072 20.8484 40.9563L20.1231 41.2937ZM21.7389 43.1828C22.4653 43.6671 23.3291 43.9 24.3107 43.9V43.1C23.4591 43.1 22.7562 42.8995 22.1826 42.5172L21.7389 43.1828ZM32.9971 45H32.5971V45.4H32.9971V45ZM32.9971 32.5V32.1H32.5971V32.5H32.9971ZM34.8721 32.5H35.2721V32.1H34.8721V32.5ZM34.8721 34.4H34.4721V35.9172L35.2201 34.5972L34.8721 34.4ZM36.2221 32.975L35.9863 32.6519L36.2221 32.975ZM40.9721 32.975L40.7557 33.3116L40.7651 33.3173L40.9721 32.975ZM42.6471 34.825L42.2893 35.0039L42.6186 35.6624L42.9918 35.0278L42.6471 34.825ZM43.4221 33.8L43.1271 33.5296L43.121 33.5366L43.4221 33.8ZM44.8471 32.75L45.03 33.1057V33.1057L44.8471 32.75ZM49.1971 32.925L49.4017 32.5813L49.1971 32.925ZM50.8971 34.725L50.5469 34.9187L50.5521 34.9275L50.8971 34.725ZM51.5721 45V45.4H51.9721V45H51.5721ZM49.6971 45H49.2971V45.4H49.6971V45ZM48.7971 34.975L48.4993 35.2423L48.5067 35.2501L48.7971 34.975ZM44.2221 34.925L43.9505 34.6314L44.2221 34.925ZM43.2221 45V45.4H43.6221V45H43.2221ZM41.3471 45H40.9471V45.4H41.3471V45ZM40.4471 34.975L40.1493 35.2423L40.1567 35.2501L40.4471 34.975ZM34.8721 45V45.4H35.2721V45H34.8721ZM33.3971 45V32.5H32.5971V45H33.3971ZM32.9971 32.9H34.8721V32.1H32.9971V32.9ZM34.4721 32.5V34.4H35.2721V32.5H34.4721ZM35.2201 34.5972C35.4678 34.1601 35.8728 33.7251 36.4579 33.2981L35.9863 32.6519C35.338 33.1249 34.843 33.6399 34.5241 34.2028L35.2201 34.5972ZM36.4579 33.2981C36.9866 32.9123 37.7123 32.7 38.6721 32.7V31.9C37.5985 31.9 36.6909 32.1377 35.9863 32.6519L36.4579 33.2981ZM38.6721 32.7C39.4288 32.7 40.1204 32.903 40.7558 33.3115L41.1884 32.6385C40.4238 32.147 39.582 31.9 38.6721 31.9V32.7ZM40.7651 33.3173C41.4126 33.7088 41.9207 34.2667 42.2893 35.0039L43.0048 34.6461C42.5734 33.7833 41.9649 33.1078 41.179 32.6327L40.7651 33.3173ZM42.9918 35.0278C43.1406 34.775 43.3808 34.4546 43.7231 34.0634L43.121 33.5366C42.7633 33.9454 42.4869 34.3083 42.3023 34.6222L42.9918 35.0278ZM43.7169 34.0703C44.0457 33.7116 44.4802 33.3885 45.03 33.1057L44.6641 32.3943C44.0473 32.7115 43.5317 33.0884 43.1272 33.5297L43.7169 34.0703ZM45.03 33.1057C45.5446 32.8411 46.1788 32.7 46.9471 32.7V31.9C46.0821 31.9 45.3162 32.0589 44.6641 32.3943L45.03 33.1057ZM46.9471 32.7C47.6737 32.7 48.3532 32.8882 48.9925 33.2687L49.4017 32.5813C48.641 32.1285 47.8205 31.9 46.9471 31.9V32.7ZM48.9925 33.2687C49.6256 33.6456 50.1446 34.191 50.5471 34.9186L51.2471 34.5314C50.7829 33.6923 50.1685 33.0377 49.4017 32.5813L48.9925 33.2687ZM50.5521 34.9275C50.96 35.6224 51.1721 36.4582 51.1721 37.45H51.9721C51.9721 36.3418 51.7341 35.3609 51.242 34.5225L50.5521 34.9275ZM51.1721 37.45V45H51.9721V37.45H51.1721ZM51.5721 44.6H49.6971V45.4H51.5721V44.6ZM50.0971 45V37.5H49.2971V45H50.0971ZM50.0971 37.5C50.0971 36.3697 49.7717 35.4222 49.0875 34.6999L48.5067 35.2501C49.0224 35.7945 49.2971 36.5303 49.2971 37.5H50.0971ZM49.0948 34.7078C48.4346 33.9722 47.5925 33.6 46.5971 33.6V34.4C47.3683 34.4 47.9929 34.6778 48.4994 35.2422L49.0948 34.7078ZM46.5971 33.6C45.5808 33.6 44.6918 33.9456 43.9505 34.6314L44.4937 35.2186C45.0857 34.6711 45.7801 34.4 46.5971 34.4V33.6ZM43.9505 34.6314C43.1837 35.3406 42.8221 36.3244 42.8221 37.525H43.6221C43.6221 36.4923 43.9271 35.7427 44.4937 35.2186L43.9505 34.6314ZM42.8221 37.525V45H43.6221V37.525H42.8221ZM43.2221 44.6H41.3471V45.4H43.2221V44.6ZM41.7471 45V37.5H40.9471V45H41.7471ZM41.7471 37.5C41.7471 36.3697 41.4217 35.4222 40.7374 34.6999L40.1567 35.2501C40.6724 35.7945 40.9471 36.5303 40.9471 37.5H41.7471ZM40.7448 34.7078C40.0846 33.9722 39.2425 33.6 38.2471 33.6V34.4C39.0183 34.4 39.6429 34.6778 40.1494 35.2422L40.7448 34.7078ZM38.2471 33.6C37.2308 33.6 36.3418 33.9456 35.6005 34.6314L36.1437 35.2186C36.7357 34.6711 37.4301 34.4 38.2471 34.4V33.6ZM35.6005 34.6314C34.8337 35.3406 34.4721 36.3244 34.4721 37.525H35.2721C35.2721 36.4923 35.5771 35.7427 36.1437 35.2186L35.6005 34.6314ZM34.4721 37.525V45H35.2721V37.525H34.4721ZM34.8721 44.6H32.9971V45.4H34.8721V44.6ZM54.7012 49.95H54.3012V50.35H54.7012V49.95ZM54.7012 32.5V32.1H54.3012V32.5H54.7012ZM56.5762 32.5H56.9762V32.1H56.5762V32.5ZM56.5762 34.5H56.1762V35.795L56.9065 34.7256L56.5762 34.5ZM58.3762 32.9L58.5615 33.2545L58.5644 33.2529L58.3762 32.9ZM64.2262 33.175L64.0086 33.5107L64.0158 33.5152L64.2262 33.175ZM66.3512 35.5L65.9946 35.6813L65.9959 35.6838L66.3512 35.5ZM66.3512 42L65.9946 41.8187L66.3512 42ZM64.2262 44.35L64.4393 44.6885L64.4409 44.6875L64.2262 44.35ZM58.3762 44.6L58.1785 44.9479L58.1879 44.9529L58.3762 44.6ZM56.5762 42.975L56.9039 42.7456L56.1762 41.7061V42.975H56.5762ZM56.5762 49.95V50.35H56.9762V49.95H56.5762ZM63.1762 42.85L62.9582 42.5146L62.9543 42.5172L63.1762 42.85ZM64.7012 41.125L65.0606 41.3005L65.0622 41.2973L64.7012 41.125ZM64.7012 36.375L65.0606 36.1995L64.7012 36.375ZM63.1762 34.65L62.9543 34.9828L62.9582 34.9854L63.1762 34.65ZM58.4512 34.65L58.2293 34.3172H58.2293L58.4512 34.65ZM56.9762 36.375L56.6135 36.2063L56.9762 36.375ZM56.9762 41.125L56.612 41.2905L56.6135 41.2937L56.9762 41.125ZM58.4512 42.85L58.2293 43.1828L58.4512 42.85ZM55.1012 49.95V32.5H54.3012V49.95H55.1012ZM54.7012 32.9H56.5762V32.1H54.7012V32.9ZM56.1762 32.5V34.5H56.9762V32.5H56.1762ZM56.9065 34.7256C57.3361 34.0965 57.8863 33.6074 58.5615 33.2545L58.1909 32.5455C57.3993 32.9593 56.7495 33.5369 56.2458 34.2744L56.9065 34.7256ZM58.5644 33.2529C59.2452 32.8898 60.0695 32.7 61.0512 32.7V31.9C59.9662 31.9 59.0071 32.1102 58.1879 32.5471L58.5644 33.2529ZM61.0512 32.7C62.2013 32.7 63.1818 32.9748 64.0086 33.5107L64.4437 32.8393C63.4705 32.2086 62.3344 31.9 61.0512 31.9V32.7ZM64.0158 33.5152C64.8686 34.0424 65.527 34.7617 65.9946 35.6813L66.7077 35.3187C66.1753 34.2716 65.4171 33.4409 64.4365 32.8348L64.0158 33.5152ZM65.9959 35.6838C66.4636 36.588 66.7012 37.6073 66.7012 38.75H67.5012C67.5012 37.4927 67.2388 36.3453 66.7065 35.3162L65.9959 35.6838ZM66.7012 38.75C66.7012 39.875 66.464 40.8956 65.9946 41.8187L66.7077 42.1813C67.2383 41.1378 67.5012 39.9917 67.5012 38.75H66.7012ZM65.9946 41.8187C65.5265 42.7393 64.8667 43.4682 64.0114 44.0125L64.4409 44.6875C65.4189 44.0651 66.1758 43.2274 66.7077 42.1813L65.9946 41.8187ZM64.013 44.0115C63.1857 44.5325 62.2035 44.8 61.0512 44.8V45.6C62.3321 45.6 63.4667 45.3009 64.4393 44.6885L64.013 44.0115ZM61.0512 44.8C60.0695 44.8 59.2452 44.6102 58.5644 44.2471L58.1879 44.9529C59.0071 45.3898 59.9662 45.6 61.0512 45.6V44.8ZM58.5738 44.2522C57.8901 43.8638 57.3352 43.3619 56.9039 42.7456L56.2485 43.2044C56.7504 43.9215 57.3956 44.5029 58.1786 44.9478L58.5738 44.2522ZM56.1762 42.975V49.95H56.9762V42.975H56.1762ZM56.5762 49.55H54.7012V50.35H56.5762V49.55ZM60.8012 43.9C61.7978 43.9 62.6704 43.6679 63.3981 43.1828L62.9543 42.5172C62.3819 42.8988 61.6712 43.1 60.8012 43.1V43.9ZM63.3942 43.1854C64.1218 42.7124 64.6789 42.0821 65.0606 41.3005L64.3417 40.9495C64.0234 41.6012 63.5639 42.1209 62.9582 42.5146L63.3942 43.1854ZM65.0622 41.2973C65.439 40.5077 65.6262 39.6568 65.6262 38.75H64.8262C64.8262 39.5432 64.6633 40.2757 64.3402 40.9527L65.0622 41.2973ZM65.6262 38.75C65.6262 37.8279 65.4396 36.9754 65.0606 36.1995L64.3417 36.5505C64.6628 37.2079 64.8262 37.9388 64.8262 38.75H65.6262ZM65.0606 36.1995C64.6789 35.4179 64.1218 34.7876 63.3942 34.3146L62.9582 34.9854C63.5639 35.3791 64.0234 35.8988 64.3417 36.5505L65.0606 36.1995ZM63.3981 34.3172C62.6704 33.8321 61.7978 33.6 60.8012 33.6V34.4C61.6712 34.4 62.3819 34.6012 62.9543 34.9828L63.3981 34.3172ZM60.8012 33.6C59.8195 33.6 58.9557 33.8329 58.2293 34.3172L58.6731 34.9828C59.2466 34.6005 59.9495 34.4 60.8012 34.4V33.6ZM58.2293 34.3172C57.5174 34.7918 56.9774 35.4239 56.6135 36.2063L57.3389 36.5437C57.6416 35.8928 58.0849 35.3749 58.6731 34.9828L58.2293 34.3172ZM56.6135 36.2063C56.2533 36.9807 56.0762 37.8307 56.0762 38.75H56.8762C56.8762 37.9359 57.0324 37.2026 57.3389 36.5437L56.6135 36.2063ZM56.0762 38.75C56.0762 39.6539 56.2538 40.5024 56.612 41.2905L57.3403 40.9595C57.0319 40.281 56.8762 39.5461 56.8762 38.75H56.0762ZM56.6135 41.2937C56.9774 42.0761 57.5174 42.7082 58.2293 43.1828L58.6731 42.5172C58.0849 42.1251 57.6416 41.6072 57.3389 40.9563L56.6135 41.2937ZM58.2293 43.1828C58.9557 43.6671 59.8195 43.9 60.8012 43.9V43.1C59.9495 43.1 59.2466 42.8995 58.6731 42.5172L58.2293 43.1828ZM71.6443 44.35L71.4267 44.6857L71.434 44.6902L71.6443 44.35ZM69.5443 35.5L69.8996 35.6838L69.9009 35.6813L69.5443 35.5ZM71.6443 33.175L71.8575 33.5135L71.8591 33.5125L71.6443 33.175ZM77.4943 32.9L77.3028 33.2512L77.3061 33.2529L77.4943 32.9ZM79.3193 34.525L78.989 34.7506L79.7193 35.82V34.525H79.3193ZM79.3193 32.5V32.1H78.9193V32.5H79.3193ZM81.1943 32.5H81.5943V32.1H81.1943V32.5ZM81.1943 45V45.4H81.5943V45H81.1943ZM79.3193 45H78.9193V45.4H79.3193V45ZM79.3193 43H79.7193V41.7311L78.9916 42.7706L79.3193 43ZM77.4943 44.6L77.3061 44.247L77.3028 44.2488L77.4943 44.6ZM77.4443 42.85L77.2224 42.5172L77.2185 42.5199L77.4443 42.85ZM78.9193 41.125L79.282 41.2937L79.2835 41.2905L78.9193 41.125ZM78.9193 36.375L78.5566 36.5437L78.9193 36.375ZM77.4443 34.65L77.2184 34.9801L77.2225 34.9828L77.4443 34.65ZM72.7193 34.65L72.5013 34.3146L72.7193 34.65ZM71.1943 36.375L70.8349 36.1995L71.1943 36.375ZM71.1943 41.125L70.8333 41.2973L70.8349 41.3005L71.1943 41.125ZM72.7193 42.85L72.9373 42.5146L72.7193 42.85ZM74.8443 44.8C73.6921 44.8 72.7003 44.5325 71.8547 44.0098L71.434 44.6902C72.4217 45.3008 73.5632 45.6 74.8443 45.6V44.8ZM71.8619 44.0143C71.0228 43.4705 70.3699 42.7411 69.9009 41.8187L69.1878 42.1813C69.7188 43.2256 70.4659 44.0629 71.4268 44.6857L71.8619 44.0143ZM69.9009 41.8187C69.4315 40.8956 69.1943 39.875 69.1943 38.75H68.3943C68.3943 39.9917 68.6572 41.1378 69.1878 42.1813L69.9009 41.8187ZM69.1943 38.75C69.1943 37.6073 69.4319 36.588 69.8996 35.6838L69.189 35.3162C68.6567 36.3453 68.3943 37.4927 68.3943 38.75H69.1943ZM69.9009 35.6813C70.3694 34.7598 71.0209 34.0402 71.8575 33.5135L71.4312 32.8365C70.4677 33.4431 69.7192 34.2735 69.1878 35.3187L69.9009 35.6813ZM71.8591 33.5125C72.7041 32.9747 73.6943 32.7 74.8443 32.7V31.9C73.561 31.9 72.4179 32.2086 71.4296 32.8375L71.8591 33.5125ZM74.8443 32.7C75.8264 32.7 76.6406 32.8899 77.3028 33.2512L77.6859 32.5488C76.8814 32.1101 75.9289 31.9 74.8443 31.9V32.7ZM77.3061 33.2529C78.0008 33.6234 78.5598 34.122 78.989 34.7506L79.6497 34.2994C79.1456 33.5613 78.4879 32.9766 77.6826 32.5471L77.3061 33.2529ZM79.7193 34.525V32.5H78.9193V34.525H79.7193ZM79.3193 32.9H81.1943V32.1H79.3193V32.9ZM80.7943 32.5V45H81.5943V32.5H80.7943ZM81.1943 44.6H79.3193V45.4H81.1943V44.6ZM79.7193 45V43H78.9193V45H79.7193ZM78.9916 42.7706C78.5627 43.3834 78.0031 43.8753 77.3061 44.2471L77.6826 44.9529C78.4856 44.5247 79.1426 43.95 79.647 43.2294L78.9916 42.7706ZM77.3028 44.2488C76.6406 44.6101 75.8264 44.8 74.8443 44.8V45.6C75.9289 45.6 76.8814 45.3899 77.6859 44.9512L77.3028 44.2488ZM75.0943 43.9C76.0906 43.9 76.9571 43.668 77.6702 43.1801L77.2185 42.5199C76.6649 42.8986 75.9647 43.1 75.0943 43.1V43.9ZM77.6662 43.1828C78.3781 42.7082 78.9181 42.0761 79.282 41.2937L78.5566 40.9563C78.2539 41.6072 77.8106 42.1251 77.2225 42.5172L77.6662 43.1828ZM79.2835 41.2905C79.6417 40.5024 79.8193 39.6539 79.8193 38.75H79.0193C79.0193 39.5461 78.8636 40.281 78.5552 40.9595L79.2835 41.2905ZM79.8193 38.75C79.8193 37.8307 79.6422 36.9807 79.282 36.2063L78.5566 36.5437C78.8631 37.2026 79.0193 37.9359 79.0193 38.75H79.8193ZM79.282 36.2063C78.9181 35.4239 78.3781 34.7918 77.6662 34.3172L77.2225 34.9828C77.8106 35.3749 78.2539 35.8928 78.5566 36.5437L79.282 36.2063ZM77.6702 34.3199C76.9571 33.832 76.0906 33.6 75.0943 33.6V34.4C75.9647 34.4 76.6649 34.6014 77.2185 34.9801L77.6702 34.3199ZM75.0943 33.6C74.1124 33.6 73.2424 33.833 72.5013 34.3146L72.9373 34.9854C73.5296 34.6004 74.2429 34.4 75.0943 34.4V33.6ZM72.5013 34.3146C71.7737 34.7876 71.2166 35.4179 70.8349 36.1995L71.5538 36.5505C71.8721 35.8988 72.3316 35.3791 72.9373 34.9854L72.5013 34.3146ZM70.8349 36.1995C70.456 36.9754 70.2693 37.8279 70.2693 38.75H71.0693C71.0693 37.9388 71.2327 37.2079 71.5538 36.5505L70.8349 36.1995ZM70.2693 38.75C70.2693 39.6568 70.4565 40.5077 70.8333 41.2973L71.5553 40.9527C71.2322 40.2757 71.0693 39.5432 71.0693 38.75H70.2693ZM70.8349 41.3005C71.2166 42.0821 71.7737 42.7124 72.5013 43.1854L72.9373 42.5146C72.3316 42.1209 71.8721 41.6012 71.5538 40.9495L70.8349 41.3005ZM72.5013 43.1854C73.2424 43.667 74.1124 43.9 75.0943 43.9V43.1C74.2429 43.1 73.5296 42.8996 72.9373 42.5146L72.5013 43.1854ZM84.4375 45H84.0375V45.4H84.4375V45ZM84.4375 32.5V32.1H84.0375V32.5H84.4375ZM86.3125 32.5H86.7125V32.1H86.3125V32.5ZM86.3125 34.45H85.9125V35.65L86.6325 34.69L86.3125 34.45ZM87.9625 32.925L88.1784 33.2618L87.9625 32.925ZM92.8875 32.925L92.6932 33.2748L92.7025 33.2796L92.8875 32.925ZM94.7375 34.75L94.3901 34.9485L94.3951 34.9568L94.7375 34.75ZM95.4625 45V45.4H95.8625V45H95.4625ZM93.5875 45H93.1875V45.4H93.5875V45ZM92.6125 35.05L92.3194 35.3222L92.3227 35.3257L92.6125 35.05ZM88.1875 34.475L87.9924 34.1258L88.1875 34.475ZM86.8125 35.825L86.4695 35.6192L86.4677 35.6222L86.8125 35.825ZM86.3125 45V45.4H86.7125V45H86.3125ZM84.8375 45V32.5H84.0375V45H84.8375ZM84.4375 32.9H86.3125V32.1H84.4375V32.9ZM85.9125 32.5V34.45H86.7125V32.5H85.9125ZM86.6325 34.69C87.053 34.1293 87.5674 33.6534 88.1784 33.2618L87.7466 32.5882C87.0576 33.0299 86.472 33.5707 85.9925 34.21L86.6325 34.69ZM88.1784 33.2618C88.7465 32.8976 89.4986 32.7 90.4625 32.7V31.9C89.3931 31.9 88.4785 32.1191 87.7466 32.5882L88.1784 33.2618ZM90.4625 32.7C91.2619 32.7 92.0033 32.8914 92.6932 33.2747L93.0818 32.5753C92.2717 32.1253 91.3964 31.9 90.4625 31.9V32.7ZM92.7025 33.2796C93.3953 33.6411 93.9581 34.1922 94.3902 34.9485L95.0848 34.5515C94.5836 33.6744 93.9131 33.0089 93.0725 32.5704L92.7025 33.2796ZM94.3951 34.9568C94.832 35.6799 95.0625 36.5954 95.0625 37.725H95.8625C95.8625 36.4879 95.6097 35.4201 95.0799 34.5432L94.3951 34.9568ZM95.0625 37.725V45H95.8625V37.725H95.0625ZM95.4625 44.6H93.5875V45.4H95.4625V44.6ZM93.9875 45V37.775H93.1875V45H93.9875ZM93.9875 37.775C93.9875 36.561 93.6369 35.5465 92.9023 34.7743L92.3227 35.3257C92.8881 35.9201 93.1875 36.7223 93.1875 37.775H93.9875ZM92.9056 34.7778C92.1733 33.9892 91.2219 33.6 90.0875 33.6V34.4C91.0198 34.4 91.7517 34.7108 92.3194 35.3222L92.9056 34.7778ZM90.0875 33.6C89.3247 33.6 88.6233 33.7732 87.9924 34.1258L88.3826 34.8242C88.885 34.5434 89.4503 34.4 90.0875 34.4V33.6ZM87.9924 34.1258C87.3618 34.4782 86.8536 34.979 86.4695 35.6192L87.1555 36.0308C87.4714 35.5044 87.8799 35.1051 88.3826 34.8242L87.9924 34.1258ZM86.4677 35.6222C86.0934 36.2586 85.9125 36.9889 85.9125 37.8H86.7125C86.7125 37.1111 86.865 36.5248 87.1573 36.0278L86.4677 35.6222ZM85.9125 37.8V45H86.7125V37.8H85.9125ZM86.3125 44.6H84.4375V45.4H86.3125V44.6ZM99.5803 49.95L99.2147 49.7877L98.9651 50.35H99.5803V49.95ZM101.855 44.825L102.221 44.9873L102.29 44.8305L102.225 44.6721L101.855 44.825ZM96.7553 32.5V32.1H96.1569L96.3857 32.6529L96.7553 32.5ZM98.8303 32.5L99.2026 32.3538L99.1029 32.1H98.8303V32.5ZM102.855 42.75L102.483 42.8962L102.852 43.8356L103.227 42.8986L102.855 42.75ZM106.955 32.5V32.1H106.684L106.584 32.3514L106.955 32.5ZM109.005 32.5L109.374 32.6562L109.609 32.1H109.005V32.5ZM101.605 49.95V50.35H101.87L101.974 50.1062L101.605 49.95ZM99.9459 50.1123L102.221 44.9873L101.49 44.6627L99.2147 49.7877L99.9459 50.1123ZM102.225 44.6721L97.1249 32.3471L96.3857 32.6529L101.486 44.9779L102.225 44.6721ZM96.7553 32.9H98.8303V32.1H96.7553V32.9ZM98.458 32.6462L102.483 42.8962L103.228 42.6038L99.2026 32.3538L98.458 32.6462ZM103.227 42.8986L107.327 32.6486L106.584 32.3514L102.484 42.6014L103.227 42.8986ZM106.955 32.9H109.005V32.1H106.955V32.9ZM108.637 32.3438L101.237 49.7938L101.974 50.1062L109.374 32.6562L108.637 32.3438ZM101.605 49.55H99.5803V50.35H101.605V49.55Z" fill="black" mask="url(#path-1-outside-1_82_1469)"/>
</svg>
